<svg width="28" height="35" viewBox="0 0 28 35" fill="none" xmlns="http://www.w3.org/2000/svg">
<path d="M14 10.5V0H3.5C2.57174 0 1.6815 0.368749 1.02513 1.02513C0.368749 1.6815 0 2.57174 0 3.5V31.5C0 32.4283 0.368749 33.3185 1.02513 33.9749C1.6815 34.6312 2.57174 35 3.5 35H24.5C25.4283 35 26.3185 34.6312 26.9749 33.9749C27.6312 33.3185 28 32.4283 28 31.5V14H17.5C16.5717 14 15.6815 13.6312 15.0251 12.9749C14.3688 12.3185 14 11.4283 14 10.5ZM5.25 17.9375C5.25 17.5894 5.38828 17.2556 5.63442 17.0094C5.88056 16.7633 6.2144 16.625 6.5625 16.625C6.9106 16.625 7.24444 16.7633 7.49058 17.0094C7.73672 17.2556 7.875 17.5894 7.875 17.9375C7.875 18.2856 7.73672 18.6194 7.49058 18.8656C7.24444 19.1117 6.9106 19.25 6.5625 19.25C6.2144 19.25 5.88056 19.1117 5.63442 18.8656C5.38828 18.6194 5.25 18.2856 5.25 17.9375ZM5.25 23.1875C5.25 22.8394 5.38828 22.5056 5.63442 22.2594C5.88056 22.0133 6.2144 21.875 6.5625 21.875C6.9106 21.875 7.24444 22.0133 7.49058 22.2594C7.73672 22.5056 7.875 22.8394 7.875 23.1875C7.875 23.5356 7.73672 23.8694 7.49058 24.1156C7.24444 24.3617 6.9106 24.5 6.5625 24.5C6.2144 24.5 5.88056 24.3617 5.63442 24.1156C5.38828 23.8694 5.25 23.5356 5.25 23.1875ZM5.25 28.4375C5.25 28.0894 5.38828 27.7556 5.63442 27.5094C5.88056 27.2633 6.2144 27.125 6.5625 27.125C6.9106 27.125 7.24444 27.2633 7.49058 27.5094C7.73672 27.7556 7.875 28.0894 7.875 28.4375C7.875 28.7856 7.73672 29.1194 7.49058 29.3656C7.24444 29.6117 6.9106 29.75 6.5625 29.75C6.2144 29.75 5.88056 29.6117 5.63442 29.3656C5.38828 29.1194 5.25 28.7856 5.25 28.4375ZM10.5 17.9375C10.5 17.5894 10.6383 17.2556 10.8844 17.0094C11.1306 16.7633 11.4644 16.625 11.8125 16.625H21.4375C21.7856 16.625 22.1194 16.7633 22.3656 17.0094C22.6117 17.2556 22.75 17.5894 22.75 17.9375C22.75 18.2856 22.6117 18.6194 22.3656 18.8656C22.1194 19.1117 21.7856 19.25 21.4375 19.25H11.8125C11.4644 19.25 11.1306 19.1117 10.8844 18.8656C10.6383 18.6194 10.5 18.2856 10.5 17.9375ZM10.5 23.1875C10.5 22.8394 10.6383 22.5056 10.8844 22.2594C11.1306 22.0133 11.4644 21.875 11.8125 21.875H21.4375C21.7856 21.875 22.1194 22.0133 22.3656 22.2594C22.6117 22.5056 22.75 22.8394 22.75 23.1875C22.75 23.5356 22.6117 23.8694 22.3656 24.1156C22.1194 24.3617 21.7856 24.5 21.4375 24.5H11.8125C11.4644 24.5 11.1306 24.3617 10.8844 24.1156C10.6383 23.8694 10.5 23.5356 10.5 23.1875ZM10.5 28.4375C10.5 28.0894 10.6383 27.7556 10.8844 27.5094C11.1306 27.2633 11.4644 27.125 11.8125 27.125H21.4375C21.7856 27.125 22.1194 27.2633 22.3656 27.5094C22.6117 27.7556 22.75 28.0894 22.75 28.4375C22.75 28.7856 22.6117 29.1194 22.3656 29.3656C22.1194 29.6117 21.7856 29.75 21.4375 29.75H11.8125C11.4644 29.75 11.1306 29.6117 10.8844 29.3656C10.6383 29.1194 10.5 28.7856 10.5 28.4375ZM16.625 10.5V0.875L27.125 11.375H17.5C17.2679 11.375 17.0454 11.2828 16.8813 11.1187C16.7172 10.9546 16.625 10.7321 16.625 10.5Z" fill="#FF6002"/>
</svg>
