<svg width="23" height="20" viewBox="0 0 23 20" fill="none" xmlns="http://www.w3.org/2000/svg">
<path d="M21.52 6.84C20.9578 5.50927 20.1427 4.30027 19.12 3.28C18.0997 2.25727 16.8907 1.44221 15.56 0.88C14.1775 0.295 12.7125 0 11.2 0C9.6875 0 8.2225 0.295 6.84 0.88C5.50927 1.44221 4.30027 2.25727 3.28 3.28C2.25727 4.30027 1.44221 5.50927 0.88 6.84C0.295 8.2225 0 9.6875 0 11.2C0 14.5175 1.4575 17.6425 3.9975 19.7775L4.04 19.8125C4.185 19.9325 4.3675 20 4.555 20H17.8475C18.035 20 18.2175 19.9325 18.3625 19.8125L18.405 19.7775C20.9425 17.6425 22.4 14.5175 22.4 11.2C22.4 9.6875 22.1025 8.2225 21.52 6.84ZM10.45 3C10.45 2.89 10.54 2.8 10.65 2.8H11.75C11.86 2.8 11.95 2.89 11.95 3V5C11.95 5.11 11.86 5.2 11.75 5.2H10.65C10.54 5.2 10.45 5.11 10.45 5V3ZM5.15 11.75C5.15 11.86 5.06 11.95 4.95 11.95H2.95C2.84 11.95 2.75 11.86 2.75 11.75V10.65C2.75 10.54 2.84 10.45 2.95 10.45H4.95C5.06 10.45 5.15 10.54 5.15 10.65V11.75ZM7.4175 6.6375L6.64 7.415C6.60241 7.45222 6.55165 7.4731 6.49875 7.4731C6.44585 7.4731 6.39509 7.45222 6.3575 7.415L4.9425 6C4.90528 5.96241 4.8844 5.91165 4.8844 5.85875C4.8844 5.80585 4.90528 5.75509 4.9425 5.7175L5.72 4.94C5.7975 4.8625 5.925 4.8625 6.0025 4.94L7.4175 6.355C7.495 6.4325 7.495 6.56 7.4175 6.6375ZM14.695 8.7275L12.5825 10.84C12.7075 11.3075 12.5875 11.825 12.22 12.1925C12.0901 12.3227 11.9358 12.4259 11.7659 12.4964C11.596 12.5669 11.4139 12.6031 11.23 12.6031C11.0461 12.6031 10.864 12.5669 10.6941 12.4964C10.5242 12.4259 10.3699 12.3227 10.24 12.1925C10.1098 12.0626 10.0066 11.9083 9.93611 11.7384C9.86565 11.5685 9.82938 11.3864 9.82938 11.2025C9.82938 11.0186 9.86565 10.8365 9.93611 10.6666C10.0066 10.4967 10.1098 10.3424 10.24 10.2125C10.4136 10.0384 10.6301 9.91318 10.8675 9.84953C11.105 9.78588 11.3551 9.78604 11.5925 9.85L13.705 7.7375C13.7825 7.66 13.91 7.66 13.9875 7.7375L14.695 8.445C14.7725 8.5225 14.7725 8.6475 14.695 8.7275ZM15.77 7.4175L14.9925 6.64C14.9553 6.60241 14.9344 6.55165 14.9344 6.49875C14.9344 6.44585 14.9553 6.39509 14.9925 6.3575L16.4075 4.9425C16.485 4.865 16.6125 4.865 16.69 4.9425L17.4675 5.72C17.545 5.7975 17.545 5.925 17.4675 6.0025L16.0525 7.4175C16.0149 7.45472 15.9641 7.4756 15.9113 7.4756C15.8584 7.4756 15.8076 7.45472 15.77 7.4175ZM19.55 11.75C19.55 11.86 19.46 11.95 19.35 11.95H17.35C17.24 11.95 17.15 11.86 17.15 11.75V10.65C17.15 10.54 17.24 10.45 17.35 10.45H19.35C19.46 10.45 19.55 10.54 19.55 10.65V11.75Z" fill="#737373"/>
</svg>
