<svg width="35" height="23" viewBox="0 0 35 23" fill="none" xmlns="http://www.w3.org/2000/svg">
<path d="M0 16.5448H35V6.20361H0V16.5448ZM29.8958 7.23773C30.6693 7.23773 31.4112 7.67354 31.9583 8.44913C32.5052 9.22518 32.8125 10.2773 32.8125 11.3742C32.8125 12.4711 32.5052 13.5233 31.9583 14.2993C31.4111 15.0749 30.6693 15.5107 29.8958 15.5107C29.1224 15.5107 28.3805 15.0749 27.8333 14.2993C27.2865 13.5232 26.9792 12.4711 26.9792 11.3742C26.9792 10.2773 27.2865 9.22513 27.8333 8.44913C28.3805 7.67354 29.1224 7.23773 29.8958 7.23773ZM23.3333 7.23773C24.1068 7.23773 24.8487 7.67354 25.3958 8.44913C25.9427 9.22518 26.25 10.2773 26.25 11.3742C26.25 12.4711 25.9427 13.5233 25.3958 14.2993C24.8486 15.0749 24.1068 15.5107 23.3333 15.5107C22.5599 15.5107 21.818 15.0749 21.2708 14.2993C20.724 13.5232 20.4167 12.4711 20.4167 11.3742C20.4167 10.2773 20.724 9.22513 21.2708 8.44913C21.818 7.67354 22.5599 7.23773 23.3333 7.23773ZM16.0417 10.3401H18.9583V12.4083H16.0417V10.3401ZM11.6667 7.23773C12.4401 7.23773 13.182 7.67354 13.7292 8.44913C14.276 9.22518 14.5833 10.2773 14.5833 11.3742C14.5833 12.4711 14.276 13.5233 13.7292 14.2993C13.182 15.0749 12.4401 15.5107 11.6667 15.5107C10.8933 15.5107 10.1513 15.0749 9.60417 14.2993C9.05729 13.5232 8.75 12.4711 8.75 11.3742C8.75 10.2773 9.05729 9.22513 9.60417 8.44913C10.1514 7.67354 10.8933 7.23773 11.6667 7.23773ZM5.10417 7.23773C5.8776 7.23773 6.6195 7.67354 7.16667 8.44913C7.71354 9.22518 8.02083 10.2773 8.02083 11.3742C8.02083 12.4711 7.71354 13.5233 7.16667 14.2993C6.61947 15.0749 5.87758 15.5107 5.10417 15.5107C4.33075 15.5107 3.58883 15.0749 3.04167 14.2993C2.49479 13.5232 2.1875 12.4711 2.1875 11.3742C2.1875 10.2773 2.49479 9.22513 3.04167 8.44913C3.58887 7.67354 4.33075 7.23773 5.10417 7.23773Z" fill="#FF6002"/>
<path d="M0 21.7155C0 21.9897 0.0768233 22.2529 0.213542 22.4468C0.35026 22.6407 0.535808 22.7496 0.729167 22.7496H34.2708C34.4642 22.7496 34.6497 22.6407 34.7865 22.4468C34.9232 22.2529 35 21.9897 35 21.7155V18.6132H0V21.7155ZM24.7917 19.6473H26.25C26.6527 19.6473 26.9792 20.1103 26.9792 20.6814C26.9792 21.2525 26.6527 21.7155 26.25 21.7155H24.7917C24.389 21.7155 24.0625 21.2525 24.0625 20.6814C24.0625 20.1103 24.389 19.6473 24.7917 19.6473ZM8.75 19.6473H10.2083C10.611 19.6473 10.9375 20.1103 10.9375 20.6814C10.9375 21.2525 10.611 21.7155 10.2083 21.7155H8.75C8.34733 21.7155 8.02083 21.2525 8.02083 20.6814C8.02083 20.1103 8.34733 19.6473 8.75 19.6473Z" fill="#FF6002"/>
<path d="M34.2708 0H0.729167C0.3265 0 0 0.463049 0 1.03412V4.13648H35V1.03412C35 0.759894 34.9232 0.496743 34.7865 0.302849C34.6497 0.108955 34.4642 0 34.2708 0ZM10.2083 3.10236H8.75C8.34733 3.10236 8.02083 2.63931 8.02083 2.06824C8.02083 1.49717 8.34733 1.03412 8.75 1.03412H10.2083C10.611 1.03412 10.9375 1.49717 10.9375 2.06824C10.9375 2.63931 10.611 3.10236 10.2083 3.10236ZM26.25 3.10236H24.7917C24.389 3.10236 24.0625 2.63931 24.0625 2.06824C24.0625 1.49717 24.389 1.03412 24.7917 1.03412H26.25C26.6527 1.03412 26.9792 1.49717 26.9792 2.06824C26.9792 2.63931 26.6527 3.10236 26.25 3.10236Z" fill="#FF6002"/>
</svg>
