<svg width="35" height="28" viewBox="0 0 35 28" fill="none" xmlns="http://www.w3.org/2000/svg">
<path d="M12.25 14C16.1164 14 19.25 10.8659 19.25 7C19.25 3.13414 16.1164 0 12.25 0C8.38359 0 5.25 3.13414 5.25 7C5.25 10.8659 8.38359 14 12.25 14ZM15.0227 16.625H9.47734C4.24211 16.625 0 20.8687 0 26.1023C0 27.1523 0.84875 28 1.89547 28H22.6023C23.6523 28 24.5 27.1523 24.5 26.1023C24.5 20.8687 20.2563 16.625 15.0227 16.625ZM26.2008 17.5H22.1621C24.675 19.5617 26.25 22.6461 26.25 26.1023C26.25 26.8023 26.0422 27.4477 25.7031 28H33.25C34.218 28 35 27.2125 35 26.2008C35 21.4156 31.0844 17.5 26.2008 17.5ZM23.625 14C27.0102 14 29.75 11.2602 29.75 7.875C29.75 4.48984 27.0102 1.75 23.625 1.75C22.2518 1.75 20.9978 2.21785 19.9762 2.98102C20.6063 4.1907 21 5.54531 21 7C21 8.9425 20.3476 10.7264 19.2724 12.1795C20.382 13.3 21.9188 14 23.625 14Z" fill="#FF6002"/>
</svg>
